<mxfile host="app.diagrams.net" agent="Mozilla/5.0 (Windows NT 10.0; Win64; x64) AppleWebKit/537.36 (KHTML, like Gecko) Chrome/135.0.0.0 Safari/537.36" version="26.2.14">
  <diagram name="Page-1" id="Ml7ee7WSmMjvFiJqc-XL">
    <mxGraphModel dx="2918" dy="3009" grid="1" gridSize="10" guides="1" tooltips="1" connect="1" arrows="1" fold="1" page="1" pageScale="1" pageWidth="827" pageHeight="1169" background="#FFFFFF" math="0" shadow="0">
      <root>
        <mxCell id="0" />
        <mxCell id="1" parent="0" />
        <mxCell id="u2GpQ1QXN_rMa1UM0fiw-30" value="" style="rounded=0;whiteSpace=wrap;html=1;verticalAlign=top;" vertex="1" parent="1">
          <mxGeometry x="-20" y="-360" width="940" height="850" as="geometry" />
        </mxCell>
        <mxCell id="u2GpQ1QXN_rMa1UM0fiw-142" value="" style="group" vertex="1" connectable="0" parent="1">
          <mxGeometry x="1250" y="-90" width="840" height="610" as="geometry" />
        </mxCell>
        <mxCell id="u2GpQ1QXN_rMa1UM0fiw-94" value="" style="rounded=0;whiteSpace=wrap;html=1;" vertex="1" parent="u2GpQ1QXN_rMa1UM0fiw-142">
          <mxGeometry width="840" height="610" as="geometry" />
        </mxCell>
        <mxCell id="u2GpQ1QXN_rMa1UM0fiw-84" value="Recipe AI Api&lt;div&gt;(Open AI)&lt;/div&gt;" style="ellipse;whiteSpace=wrap;html=1;aspect=fixed;" vertex="1" parent="u2GpQ1QXN_rMa1UM0fiw-142">
          <mxGeometry x="720" y="285" width="80" height="80" as="geometry" />
        </mxCell>
        <mxCell id="u2GpQ1QXN_rMa1UM0fiw-135" style="edgeStyle=orthogonalEdgeStyle;rounded=0;orthogonalLoop=1;jettySize=auto;html=1;exitX=0.5;exitY=0;exitDx=0;exitDy=0;entryX=1;entryY=1;entryDx=0;entryDy=0;" edge="1" parent="u2GpQ1QXN_rMa1UM0fiw-142" source="u2GpQ1QXN_rMa1UM0fiw-85" target="u2GpQ1QXN_rMa1UM0fiw-91">
          <mxGeometry relative="1" as="geometry" />
        </mxCell>
        <mxCell id="u2GpQ1QXN_rMa1UM0fiw-136" value="Validation, Report" style="edgeLabel;html=1;align=center;verticalAlign=middle;resizable=0;points=[];" vertex="1" connectable="0" parent="u2GpQ1QXN_rMa1UM0fiw-135">
          <mxGeometry x="0.0607" y="3" relative="1" as="geometry">
            <mxPoint as="offset" />
          </mxGeometry>
        </mxCell>
        <mxCell id="u2GpQ1QXN_rMa1UM0fiw-85" value="Admin Database" style="ellipse;whiteSpace=wrap;html=1;aspect=fixed;" vertex="1" parent="u2GpQ1QXN_rMa1UM0fiw-142">
          <mxGeometry x="540" y="480" width="80" height="80" as="geometry" />
        </mxCell>
        <mxCell id="u2GpQ1QXN_rMa1UM0fiw-95" style="edgeStyle=orthogonalEdgeStyle;rounded=0;orthogonalLoop=1;jettySize=auto;html=1;exitX=0.5;exitY=0;exitDx=0;exitDy=0;entryX=0.5;entryY=0;entryDx=0;entryDy=0;" edge="1" parent="u2GpQ1QXN_rMa1UM0fiw-142" source="u2GpQ1QXN_rMa1UM0fiw-86" target="u2GpQ1QXN_rMa1UM0fiw-91">
          <mxGeometry relative="1" as="geometry">
            <Array as="points">
              <mxPoint x="90" y="240" />
            </Array>
          </mxGeometry>
        </mxCell>
        <mxCell id="u2GpQ1QXN_rMa1UM0fiw-107" value="Select Shop" style="edgeLabel;html=1;align=center;verticalAlign=middle;resizable=0;points=[];" vertex="1" connectable="0" parent="u2GpQ1QXN_rMa1UM0fiw-95">
          <mxGeometry x="-0.0584" y="-4" relative="1" as="geometry">
            <mxPoint y="-4" as="offset" />
          </mxGeometry>
        </mxCell>
        <mxCell id="u2GpQ1QXN_rMa1UM0fiw-96" style="edgeStyle=orthogonalEdgeStyle;rounded=0;orthogonalLoop=1;jettySize=auto;html=1;exitX=1;exitY=0;exitDx=0;exitDy=0;entryX=0;entryY=0;entryDx=0;entryDy=0;" edge="1" parent="u2GpQ1QXN_rMa1UM0fiw-142" source="u2GpQ1QXN_rMa1UM0fiw-86" target="u2GpQ1QXN_rMa1UM0fiw-91">
          <mxGeometry relative="1" as="geometry">
            <Array as="points">
              <mxPoint x="279" y="277" />
            </Array>
          </mxGeometry>
        </mxCell>
        <mxCell id="u2GpQ1QXN_rMa1UM0fiw-108" value="Place Order" style="edgeLabel;html=1;align=center;verticalAlign=middle;resizable=0;points=[];" vertex="1" connectable="0" parent="u2GpQ1QXN_rMa1UM0fiw-96">
          <mxGeometry x="-0.0854" y="2" relative="1" as="geometry">
            <mxPoint as="offset" />
          </mxGeometry>
        </mxCell>
        <mxCell id="u2GpQ1QXN_rMa1UM0fiw-98" style="edgeStyle=orthogonalEdgeStyle;rounded=0;orthogonalLoop=1;jettySize=auto;html=1;exitX=1;exitY=0.5;exitDx=0;exitDy=0;entryX=0;entryY=0.5;entryDx=0;entryDy=0;" edge="1" parent="u2GpQ1QXN_rMa1UM0fiw-142" source="u2GpQ1QXN_rMa1UM0fiw-86" target="u2GpQ1QXN_rMa1UM0fiw-91">
          <mxGeometry relative="1" as="geometry">
            <Array as="points">
              <mxPoint x="200" y="305" />
              <mxPoint x="200" y="305" />
            </Array>
          </mxGeometry>
        </mxCell>
        <mxCell id="u2GpQ1QXN_rMa1UM0fiw-109" value="Receive Recipe&amp;nbsp;&lt;div&gt;Suggestion&lt;/div&gt;" style="edgeLabel;html=1;align=center;verticalAlign=middle;resizable=0;points=[];" vertex="1" connectable="0" parent="u2GpQ1QXN_rMa1UM0fiw-98">
          <mxGeometry x="-0.1927" relative="1" as="geometry">
            <mxPoint as="offset" />
          </mxGeometry>
        </mxCell>
        <mxCell id="u2GpQ1QXN_rMa1UM0fiw-99" style="edgeStyle=orthogonalEdgeStyle;rounded=0;orthogonalLoop=1;jettySize=auto;html=1;exitX=1;exitY=1;exitDx=0;exitDy=0;entryX=0;entryY=1;entryDx=0;entryDy=0;" edge="1" parent="u2GpQ1QXN_rMa1UM0fiw-142" source="u2GpQ1QXN_rMa1UM0fiw-86" target="u2GpQ1QXN_rMa1UM0fiw-91">
          <mxGeometry relative="1" as="geometry">
            <Array as="points">
              <mxPoint x="118" y="340" />
              <mxPoint x="279" y="340" />
            </Array>
          </mxGeometry>
        </mxCell>
        <mxCell id="u2GpQ1QXN_rMa1UM0fiw-110" value="Make Payment" style="edgeLabel;html=1;align=center;verticalAlign=middle;resizable=0;points=[];" vertex="1" connectable="0" parent="u2GpQ1QXN_rMa1UM0fiw-99">
          <mxGeometry x="-0.144" relative="1" as="geometry">
            <mxPoint as="offset" />
          </mxGeometry>
        </mxCell>
        <mxCell id="u2GpQ1QXN_rMa1UM0fiw-100" style="edgeStyle=orthogonalEdgeStyle;rounded=0;orthogonalLoop=1;jettySize=auto;html=1;exitX=0.5;exitY=1;exitDx=0;exitDy=0;entryX=0.5;entryY=1;entryDx=0;entryDy=0;" edge="1" parent="u2GpQ1QXN_rMa1UM0fiw-142" source="u2GpQ1QXN_rMa1UM0fiw-86" target="u2GpQ1QXN_rMa1UM0fiw-91">
          <mxGeometry relative="1" as="geometry">
            <Array as="points">
              <mxPoint x="90" y="370" />
            </Array>
          </mxGeometry>
        </mxCell>
        <mxCell id="u2GpQ1QXN_rMa1UM0fiw-111" value="Browse Products" style="edgeLabel;html=1;align=center;verticalAlign=middle;resizable=0;points=[];" vertex="1" connectable="0" parent="u2GpQ1QXN_rMa1UM0fiw-100">
          <mxGeometry x="-0.1027" y="-1" relative="1" as="geometry">
            <mxPoint as="offset" />
          </mxGeometry>
        </mxCell>
        <mxCell id="u2GpQ1QXN_rMa1UM0fiw-86" value="USER" style="ellipse;whiteSpace=wrap;html=1;aspect=fixed;" vertex="1" parent="u2GpQ1QXN_rMa1UM0fiw-142">
          <mxGeometry x="50" y="265" width="80" height="80" as="geometry" />
        </mxCell>
        <mxCell id="u2GpQ1QXN_rMa1UM0fiw-121" style="edgeStyle=orthogonalEdgeStyle;rounded=0;orthogonalLoop=1;jettySize=auto;html=1;exitX=0.5;exitY=1;exitDx=0;exitDy=0;entryX=1;entryY=0;entryDx=0;entryDy=0;" edge="1" parent="u2GpQ1QXN_rMa1UM0fiw-142" source="u2GpQ1QXN_rMa1UM0fiw-87" target="u2GpQ1QXN_rMa1UM0fiw-91">
          <mxGeometry relative="1" as="geometry">
            <mxPoint x="409.9999999999786" y="92.98" as="sourcePoint" />
            <mxPoint x="370.96194077712335" y="252.01805922287642" as="targetPoint" />
            <Array as="points">
              <mxPoint x="410" y="140" />
              <mxPoint x="410" y="252" />
              <mxPoint x="371" y="252" />
            </Array>
          </mxGeometry>
        </mxCell>
        <mxCell id="u2GpQ1QXN_rMa1UM0fiw-122" value="Order Confirmation,&lt;div&gt;Stock Updates&lt;/div&gt;" style="edgeLabel;html=1;align=center;verticalAlign=middle;resizable=0;points=[];" vertex="1" connectable="0" parent="u2GpQ1QXN_rMa1UM0fiw-121">
          <mxGeometry x="-0.7336" y="1" relative="1" as="geometry">
            <mxPoint x="-1" y="53" as="offset" />
          </mxGeometry>
        </mxCell>
        <mxCell id="u2GpQ1QXN_rMa1UM0fiw-87" value="VENDOR" style="ellipse;whiteSpace=wrap;html=1;aspect=fixed;" vertex="1" parent="u2GpQ1QXN_rMa1UM0fiw-142">
          <mxGeometry x="360" y="60" width="80" height="80" as="geometry" />
        </mxCell>
        <mxCell id="u2GpQ1QXN_rMa1UM0fiw-93" value="Recipe Request" style="edgeStyle=orthogonalEdgeStyle;rounded=0;orthogonalLoop=1;jettySize=auto;html=1;exitX=1;exitY=1;exitDx=0;exitDy=0;entryX=0;entryY=1;entryDx=0;entryDy=0;" edge="1" parent="u2GpQ1QXN_rMa1UM0fiw-142" source="u2GpQ1QXN_rMa1UM0fiw-91" target="u2GpQ1QXN_rMa1UM0fiw-84">
          <mxGeometry relative="1" as="geometry">
            <mxPoint x="820" y="470" as="targetPoint" />
            <Array as="points">
              <mxPoint x="371" y="348" />
            </Array>
          </mxGeometry>
        </mxCell>
        <mxCell id="u2GpQ1QXN_rMa1UM0fiw-105" style="edgeStyle=orthogonalEdgeStyle;rounded=0;orthogonalLoop=1;jettySize=auto;html=1;exitX=1;exitY=0;exitDx=0;exitDy=0;entryX=0;entryY=0.5;entryDx=0;entryDy=0;" edge="1" parent="u2GpQ1QXN_rMa1UM0fiw-142" source="u2GpQ1QXN_rMa1UM0fiw-91" target="u2GpQ1QXN_rMa1UM0fiw-87">
          <mxGeometry relative="1" as="geometry">
            <Array as="points">
              <mxPoint x="350" y="259" />
              <mxPoint x="350" y="210" />
              <mxPoint x="300" y="210" />
              <mxPoint x="300" y="100" />
            </Array>
          </mxGeometry>
        </mxCell>
        <mxCell id="u2GpQ1QXN_rMa1UM0fiw-112" value="Order Requests,&lt;div&gt;Inventory Updates&lt;/div&gt;" style="edgeLabel;html=1;align=center;verticalAlign=middle;resizable=0;points=[];" vertex="1" connectable="0" parent="u2GpQ1QXN_rMa1UM0fiw-105">
          <mxGeometry x="0.2368" y="2" relative="1" as="geometry">
            <mxPoint x="2" y="-14" as="offset" />
          </mxGeometry>
        </mxCell>
        <mxCell id="u2GpQ1QXN_rMa1UM0fiw-106" style="edgeStyle=orthogonalEdgeStyle;rounded=0;orthogonalLoop=1;jettySize=auto;html=1;exitX=1;exitY=1;exitDx=0;exitDy=0;entryX=0;entryY=0.5;entryDx=0;entryDy=0;" edge="1" parent="u2GpQ1QXN_rMa1UM0fiw-142" source="u2GpQ1QXN_rMa1UM0fiw-91" target="u2GpQ1QXN_rMa1UM0fiw-85">
          <mxGeometry relative="1" as="geometry">
            <Array as="points">
              <mxPoint x="360" y="351" />
              <mxPoint x="360" y="520" />
            </Array>
          </mxGeometry>
        </mxCell>
        <mxCell id="u2GpQ1QXN_rMa1UM0fiw-116" value="Logs, User Data,&lt;div&gt;Order Records&lt;/div&gt;" style="edgeLabel;html=1;align=center;verticalAlign=middle;resizable=0;points=[];" vertex="1" connectable="0" parent="u2GpQ1QXN_rMa1UM0fiw-106">
          <mxGeometry x="0.2964" relative="1" as="geometry">
            <mxPoint as="offset" />
          </mxGeometry>
        </mxCell>
        <mxCell id="u2GpQ1QXN_rMa1UM0fiw-126" style="edgeStyle=orthogonalEdgeStyle;rounded=0;orthogonalLoop=1;jettySize=auto;html=1;exitX=1;exitY=0.5;exitDx=0;exitDy=0;" edge="1" parent="u2GpQ1QXN_rMa1UM0fiw-142" source="u2GpQ1QXN_rMa1UM0fiw-91">
          <mxGeometry relative="1" as="geometry">
            <mxPoint x="390.00000000000045" y="310" as="targetPoint" />
          </mxGeometry>
        </mxCell>
        <mxCell id="u2GpQ1QXN_rMa1UM0fiw-129" style="edgeStyle=orthogonalEdgeStyle;rounded=0;orthogonalLoop=1;jettySize=auto;html=1;exitX=1;exitY=0;exitDx=0;exitDy=0;entryX=0;entryY=0.5;entryDx=0;entryDy=0;" edge="1" parent="u2GpQ1QXN_rMa1UM0fiw-142" source="u2GpQ1QXN_rMa1UM0fiw-91" target="u2GpQ1QXN_rMa1UM0fiw-119">
          <mxGeometry relative="1" as="geometry">
            <Array as="points">
              <mxPoint x="560" y="259" />
              <mxPoint x="560" y="200" />
            </Array>
          </mxGeometry>
        </mxCell>
        <mxCell id="u2GpQ1QXN_rMa1UM0fiw-131" value="Payment Request" style="edgeLabel;html=1;align=center;verticalAlign=middle;resizable=0;points=[];" vertex="1" connectable="0" parent="u2GpQ1QXN_rMa1UM0fiw-129">
          <mxGeometry x="-0.1249" relative="1" as="geometry">
            <mxPoint as="offset" />
          </mxGeometry>
        </mxCell>
        <mxCell id="u2GpQ1QXN_rMa1UM0fiw-91" value="NexLocal System (Process 1)" style="ellipse;whiteSpace=wrap;html=1;aspect=fixed;" vertex="1" parent="u2GpQ1QXN_rMa1UM0fiw-142">
          <mxGeometry x="260" y="240" width="130" height="130" as="geometry" />
        </mxCell>
        <mxCell id="u2GpQ1QXN_rMa1UM0fiw-123" style="edgeStyle=orthogonalEdgeStyle;rounded=0;orthogonalLoop=1;jettySize=auto;html=1;exitX=0.5;exitY=1;exitDx=0;exitDy=0;entryX=1;entryY=0.5;entryDx=0;entryDy=0;" edge="1" parent="u2GpQ1QXN_rMa1UM0fiw-142" source="u2GpQ1QXN_rMa1UM0fiw-119" target="u2GpQ1QXN_rMa1UM0fiw-91">
          <mxGeometry relative="1" as="geometry">
            <Array as="points" />
          </mxGeometry>
        </mxCell>
        <mxCell id="u2GpQ1QXN_rMa1UM0fiw-124" value="Payment Status" style="edgeLabel;html=1;align=center;verticalAlign=middle;resizable=0;points=[];" vertex="1" connectable="0" parent="u2GpQ1QXN_rMa1UM0fiw-123">
          <mxGeometry x="0.1592" y="2" relative="1" as="geometry">
            <mxPoint as="offset" />
          </mxGeometry>
        </mxCell>
        <mxCell id="u2GpQ1QXN_rMa1UM0fiw-119" value="Payment Gateway" style="ellipse;whiteSpace=wrap;html=1;aspect=fixed;" vertex="1" parent="u2GpQ1QXN_rMa1UM0fiw-142">
          <mxGeometry x="580" y="160" width="80" height="80" as="geometry" />
        </mxCell>
        <mxCell id="u2GpQ1QXN_rMa1UM0fiw-133" style="edgeStyle=orthogonalEdgeStyle;rounded=0;orthogonalLoop=1;jettySize=auto;html=1;exitX=0;exitY=0.5;exitDx=0;exitDy=0;entryX=0.969;entryY=0.638;entryDx=0;entryDy=0;entryPerimeter=0;" edge="1" parent="u2GpQ1QXN_rMa1UM0fiw-142" source="u2GpQ1QXN_rMa1UM0fiw-84" target="u2GpQ1QXN_rMa1UM0fiw-91">
          <mxGeometry relative="1" as="geometry">
            <mxPoint x="390" y="323" as="targetPoint" />
            <Array as="points">
              <mxPoint x="680" y="325" />
              <mxPoint x="680" y="323" />
            </Array>
          </mxGeometry>
        </mxCell>
        <mxCell id="u2GpQ1QXN_rMa1UM0fiw-134" value="Recipe Suggestions&amp;nbsp;" style="edgeLabel;html=1;align=center;verticalAlign=middle;resizable=0;points=[];" vertex="1" connectable="0" parent="u2GpQ1QXN_rMa1UM0fiw-133">
          <mxGeometry x="-0.2157" y="-1" relative="1" as="geometry">
            <mxPoint as="offset" />
          </mxGeometry>
        </mxCell>
        <mxCell id="u2GpQ1QXN_rMa1UM0fiw-140" value="&lt;span style=&quot;font-size:14.0pt;font-family:&lt;br/&gt;&amp;quot;Times New Roman&amp;quot;,serif;mso-fareast-font-family:&amp;quot;Times New Roman&amp;quot;;mso-ansi-language:&lt;br/&gt;EN-US;mso-fareast-language:EN-US;mso-bidi-language:AR-SA&quot; lang=&quot;EN-US&quot;&gt;Data Flow Diagram - 0&amp;nbsp; (DFD-0)&lt;/span&gt;" style="text;html=1;align=center;verticalAlign=middle;whiteSpace=wrap;rounded=0;" vertex="1" parent="u2GpQ1QXN_rMa1UM0fiw-142">
          <mxGeometry x="265" y="10" width="270" height="30" as="geometry" />
        </mxCell>
        <mxCell id="u2GpQ1QXN_rMa1UM0fiw-141" value="Figure 3.2" style="text;html=1;align=center;verticalAlign=middle;whiteSpace=wrap;rounded=0;" vertex="1" parent="u2GpQ1QXN_rMa1UM0fiw-142">
          <mxGeometry x="390" y="570" width="60" height="30" as="geometry" />
        </mxCell>
        <mxCell id="u2GpQ1QXN_rMa1UM0fiw-143" value="" style="group" vertex="1" connectable="0" parent="1">
          <mxGeometry x="20" y="-340" width="860" height="820" as="geometry" />
        </mxCell>
        <mxCell id="u2GpQ1QXN_rMa1UM0fiw-62" style="edgeStyle=orthogonalEdgeStyle;rounded=0;orthogonalLoop=1;jettySize=auto;html=1;exitX=0;exitY=0.3333333333333333;exitDx=0;exitDy=0;exitPerimeter=0;entryX=1;entryY=0.5;entryDx=0;entryDy=0;" edge="1" parent="u2GpQ1QXN_rMa1UM0fiw-143" source="u2GpQ1QXN_rMa1UM0fiw-9" target="u2GpQ1QXN_rMa1UM0fiw-43">
          <mxGeometry relative="1" as="geometry" />
        </mxCell>
        <mxCell id="u2GpQ1QXN_rMa1UM0fiw-63" style="edgeStyle=orthogonalEdgeStyle;rounded=0;orthogonalLoop=1;jettySize=auto;html=1;exitX=0.5;exitY=0.5;exitDx=0;exitDy=0;exitPerimeter=0;entryX=1;entryY=0.5;entryDx=0;entryDy=0;" edge="1" parent="u2GpQ1QXN_rMa1UM0fiw-143" source="u2GpQ1QXN_rMa1UM0fiw-9" target="u2GpQ1QXN_rMa1UM0fiw-47">
          <mxGeometry relative="1" as="geometry">
            <Array as="points">
              <mxPoint x="855" y="530" />
              <mxPoint x="750" y="530" />
              <mxPoint x="750" y="725" />
            </Array>
          </mxGeometry>
        </mxCell>
        <mxCell id="u2GpQ1QXN_rMa1UM0fiw-64" style="edgeStyle=orthogonalEdgeStyle;rounded=0;orthogonalLoop=1;jettySize=auto;html=1;exitX=0.5;exitY=0.5;exitDx=0;exitDy=0;exitPerimeter=0;entryX=1;entryY=0.5;entryDx=0;entryDy=0;" edge="1" parent="u2GpQ1QXN_rMa1UM0fiw-143" source="u2GpQ1QXN_rMa1UM0fiw-9" target="u2GpQ1QXN_rMa1UM0fiw-41">
          <mxGeometry relative="1" as="geometry">
            <Array as="points">
              <mxPoint x="730" y="335" />
              <mxPoint x="730" y="605" />
            </Array>
          </mxGeometry>
        </mxCell>
        <mxCell id="u2GpQ1QXN_rMa1UM0fiw-9" value="&lt;font style=&quot;font-size: 18px;&quot;&gt;Admin&lt;/font&gt;" style="shape=umlActor;verticalLabelPosition=bottom;verticalAlign=top;html=1;outlineConnect=0;labelBackgroundColor=none;labelBorderColor=none;textShadow=0;" vertex="1" parent="u2GpQ1QXN_rMa1UM0fiw-143">
          <mxGeometry x="780" y="250" width="80" height="150" as="geometry" />
        </mxCell>
        <mxCell id="u2GpQ1QXN_rMa1UM0fiw-53" style="edgeStyle=orthogonalEdgeStyle;rounded=0;orthogonalLoop=1;jettySize=auto;html=1;exitX=1;exitY=0.3333333333333333;exitDx=0;exitDy=0;exitPerimeter=0;entryX=0.5;entryY=0;entryDx=0;entryDy=0;" edge="1" parent="u2GpQ1QXN_rMa1UM0fiw-143" source="u2GpQ1QXN_rMa1UM0fiw-10" target="u2GpQ1QXN_rMa1UM0fiw-45">
          <mxGeometry relative="1" as="geometry">
            <Array as="points">
              <mxPoint x="250" y="557" />
              <mxPoint x="250" y="60" />
              <mxPoint x="465" y="60" />
            </Array>
          </mxGeometry>
        </mxCell>
        <mxCell id="u2GpQ1QXN_rMa1UM0fiw-72" style="edgeStyle=orthogonalEdgeStyle;rounded=0;orthogonalLoop=1;jettySize=auto;html=1;exitX=0.5;exitY=0.5;exitDx=0;exitDy=0;exitPerimeter=0;" edge="1" parent="u2GpQ1QXN_rMa1UM0fiw-143" source="u2GpQ1QXN_rMa1UM0fiw-10" target="u2GpQ1QXN_rMa1UM0fiw-38">
          <mxGeometry relative="1" as="geometry">
            <Array as="points">
              <mxPoint x="330" y="575" />
              <mxPoint x="330" y="485" />
            </Array>
          </mxGeometry>
        </mxCell>
        <mxCell id="u2GpQ1QXN_rMa1UM0fiw-10" value="&lt;font style=&quot;font-size: 18px;&quot;&gt;Dealer&lt;/font&gt;" style="shape=umlActor;verticalLabelPosition=bottom;verticalAlign=top;html=1;outlineConnect=0;labelBackgroundColor=none;whiteSpace=wrap;textShadow=0;" vertex="1" parent="u2GpQ1QXN_rMa1UM0fiw-143">
          <mxGeometry y="520" width="50" height="110" as="geometry" />
        </mxCell>
        <mxCell id="u2GpQ1QXN_rMa1UM0fiw-52" style="edgeStyle=orthogonalEdgeStyle;rounded=0;orthogonalLoop=1;jettySize=auto;html=1;exitX=1;exitY=0.3333333333333333;exitDx=0;exitDy=0;exitPerimeter=0;entryX=0;entryY=0.5;entryDx=0;entryDy=0;" edge="1" parent="u2GpQ1QXN_rMa1UM0fiw-143" source="u2GpQ1QXN_rMa1UM0fiw-11" target="u2GpQ1QXN_rMa1UM0fiw-45">
          <mxGeometry relative="1" as="geometry" />
        </mxCell>
        <mxCell id="u2GpQ1QXN_rMa1UM0fiw-54" style="edgeStyle=orthogonalEdgeStyle;rounded=0;orthogonalLoop=1;jettySize=auto;html=1;exitX=0.5;exitY=0.5;exitDx=0;exitDy=0;exitPerimeter=0;" edge="1" parent="u2GpQ1QXN_rMa1UM0fiw-143" source="u2GpQ1QXN_rMa1UM0fiw-11" target="u2GpQ1QXN_rMa1UM0fiw-44">
          <mxGeometry relative="1" as="geometry">
            <Array as="points">
              <mxPoint x="330" y="190" />
              <mxPoint x="330" y="175" />
            </Array>
          </mxGeometry>
        </mxCell>
        <mxCell id="u2GpQ1QXN_rMa1UM0fiw-56" style="edgeStyle=orthogonalEdgeStyle;rounded=0;orthogonalLoop=1;jettySize=auto;html=1;exitX=0.5;exitY=0.5;exitDx=0;exitDy=0;exitPerimeter=0;entryX=0;entryY=0.5;entryDx=0;entryDy=0;" edge="1" parent="u2GpQ1QXN_rMa1UM0fiw-143" source="u2GpQ1QXN_rMa1UM0fiw-11" target="u2GpQ1QXN_rMa1UM0fiw-37">
          <mxGeometry relative="1" as="geometry" />
        </mxCell>
        <mxCell id="u2GpQ1QXN_rMa1UM0fiw-57" style="edgeStyle=orthogonalEdgeStyle;rounded=0;orthogonalLoop=1;jettySize=auto;html=1;exitX=0.5;exitY=0.5;exitDx=0;exitDy=0;exitPerimeter=0;entryX=0;entryY=0.5;entryDx=0;entryDy=0;" edge="1" parent="u2GpQ1QXN_rMa1UM0fiw-143" source="u2GpQ1QXN_rMa1UM0fiw-11" target="u2GpQ1QXN_rMa1UM0fiw-46">
          <mxGeometry relative="1" as="geometry">
            <Array as="points">
              <mxPoint x="270" y="190" />
              <mxPoint x="270" y="305" />
            </Array>
          </mxGeometry>
        </mxCell>
        <mxCell id="u2GpQ1QXN_rMa1UM0fiw-73" style="edgeStyle=orthogonalEdgeStyle;rounded=0;orthogonalLoop=1;jettySize=auto;html=1;exitX=0.5;exitY=0.5;exitDx=0;exitDy=0;exitPerimeter=0;" edge="1" parent="u2GpQ1QXN_rMa1UM0fiw-143" source="u2GpQ1QXN_rMa1UM0fiw-11">
          <mxGeometry relative="1" as="geometry">
            <mxPoint x="370" y="480" as="targetPoint" />
            <Array as="points">
              <mxPoint x="155" y="480" />
            </Array>
          </mxGeometry>
        </mxCell>
        <mxCell id="u2GpQ1QXN_rMa1UM0fiw-11" value="&lt;font style=&quot;font-size: 18px;&quot;&gt;Customer&lt;/font&gt;" style="shape=umlActor;verticalLabelPosition=bottom;verticalAlign=top;outlineConnect=0;fontFamily=Times New Roman;html=1;whiteSpace=wrap;textShadow=0;labelBorderColor=none;labelBackgroundColor=none;horizontal=1;" vertex="1" parent="u2GpQ1QXN_rMa1UM0fiw-143">
          <mxGeometry y="130" width="40" height="80" as="geometry" />
        </mxCell>
        <mxCell id="u2GpQ1QXN_rMa1UM0fiw-16" value="NexLocal Use Case" style="text;html=1;align=center;verticalAlign=middle;rounded=0;textShadow=0;labelBackgroundColor=none;fontSize=25;" vertex="1" parent="u2GpQ1QXN_rMa1UM0fiw-143">
          <mxGeometry x="335" width="190" height="30" as="geometry" />
        </mxCell>
        <mxCell id="u2GpQ1QXN_rMa1UM0fiw-61" style="edgeStyle=orthogonalEdgeStyle;rounded=0;orthogonalLoop=1;jettySize=auto;html=1;exitX=1;exitY=0.5;exitDx=0;exitDy=0;" edge="1" parent="u2GpQ1QXN_rMa1UM0fiw-143" source="u2GpQ1QXN_rMa1UM0fiw-37" target="u2GpQ1QXN_rMa1UM0fiw-46">
          <mxGeometry relative="1" as="geometry">
            <Array as="points">
              <mxPoint x="580" y="235" />
              <mxPoint x="580" y="270" />
              <mxPoint x="465" y="270" />
            </Array>
          </mxGeometry>
        </mxCell>
        <mxCell id="u2GpQ1QXN_rMa1UM0fiw-71" style="edgeStyle=orthogonalEdgeStyle;rounded=0;orthogonalLoop=1;jettySize=auto;html=1;exitX=0.5;exitY=0;exitDx=0;exitDy=0;entryX=0.5;entryY=1;entryDx=0;entryDy=0;dashed=1;dashPattern=8 8;" edge="1" parent="u2GpQ1QXN_rMa1UM0fiw-143" source="u2GpQ1QXN_rMa1UM0fiw-37" target="u2GpQ1QXN_rMa1UM0fiw-42">
          <mxGeometry relative="1" as="geometry">
            <Array as="points">
              <mxPoint x="465" y="200" />
              <mxPoint x="695" y="200" />
            </Array>
          </mxGeometry>
        </mxCell>
        <mxCell id="u2GpQ1QXN_rMa1UM0fiw-74" value="Extend" style="edgeLabel;html=1;align=center;verticalAlign=middle;resizable=0;points=[];" vertex="1" connectable="0" parent="u2GpQ1QXN_rMa1UM0fiw-71">
          <mxGeometry x="0.1538" y="-4" relative="1" as="geometry">
            <mxPoint x="-15" y="-14" as="offset" />
          </mxGeometry>
        </mxCell>
        <mxCell id="u2GpQ1QXN_rMa1UM0fiw-37" value="Browse Product" style="ellipse;whiteSpace=wrap;html=1;" vertex="1" parent="u2GpQ1QXN_rMa1UM0fiw-143">
          <mxGeometry x="370" y="210" width="190" height="50" as="geometry" />
        </mxCell>
        <mxCell id="u2GpQ1QXN_rMa1UM0fiw-78" style="edgeStyle=orthogonalEdgeStyle;rounded=0;orthogonalLoop=1;jettySize=auto;html=1;exitX=1;exitY=0.5;exitDx=0;exitDy=0;entryX=1;entryY=0.5;entryDx=0;entryDy=0;dashed=1;dashPattern=8 8;" edge="1" parent="u2GpQ1QXN_rMa1UM0fiw-143" source="u2GpQ1QXN_rMa1UM0fiw-38" target="u2GpQ1QXN_rMa1UM0fiw-40">
          <mxGeometry relative="1" as="geometry" />
        </mxCell>
        <mxCell id="u2GpQ1QXN_rMa1UM0fiw-79" value="extend" style="edgeLabel;html=1;align=center;verticalAlign=middle;resizable=0;points=[];horizontal=0;rotation=180;" vertex="1" connectable="0" parent="u2GpQ1QXN_rMa1UM0fiw-78">
          <mxGeometry x="-0.3779" y="3" relative="1" as="geometry">
            <mxPoint x="7" y="14" as="offset" />
          </mxGeometry>
        </mxCell>
        <mxCell id="u2GpQ1QXN_rMa1UM0fiw-38" value="View Order" style="ellipse;whiteSpace=wrap;html=1;" vertex="1" parent="u2GpQ1QXN_rMa1UM0fiw-143">
          <mxGeometry x="370" y="460" width="190" height="50" as="geometry" />
        </mxCell>
        <mxCell id="u2GpQ1QXN_rMa1UM0fiw-39" value="Confirm Order" style="ellipse;whiteSpace=wrap;html=1;" vertex="1" parent="u2GpQ1QXN_rMa1UM0fiw-143">
          <mxGeometry x="370" y="340" width="190" height="50" as="geometry" />
        </mxCell>
        <mxCell id="u2GpQ1QXN_rMa1UM0fiw-40" value="Update Order Status" style="ellipse;whiteSpace=wrap;html=1;" vertex="1" parent="u2GpQ1QXN_rMa1UM0fiw-143">
          <mxGeometry x="370" y="520" width="190" height="50" as="geometry" />
        </mxCell>
        <mxCell id="u2GpQ1QXN_rMa1UM0fiw-41" value="Moderate Feedback" style="ellipse;whiteSpace=wrap;html=1;" vertex="1" parent="u2GpQ1QXN_rMa1UM0fiw-143">
          <mxGeometry x="370" y="580" width="190" height="50" as="geometry" />
        </mxCell>
        <mxCell id="u2GpQ1QXN_rMa1UM0fiw-42" value="Request Recipe" style="ellipse;whiteSpace=wrap;html=1;" vertex="1" parent="u2GpQ1QXN_rMa1UM0fiw-143">
          <mxGeometry x="600" y="130" width="190" height="50" as="geometry" />
        </mxCell>
        <mxCell id="u2GpQ1QXN_rMa1UM0fiw-65" style="edgeStyle=orthogonalEdgeStyle;rounded=0;orthogonalLoop=1;jettySize=auto;html=1;exitX=0;exitY=0.5;exitDx=0;exitDy=0;entryX=0;entryY=0.5;entryDx=0;entryDy=0;" edge="1" parent="u2GpQ1QXN_rMa1UM0fiw-143" source="u2GpQ1QXN_rMa1UM0fiw-43" target="u2GpQ1QXN_rMa1UM0fiw-48">
          <mxGeometry relative="1" as="geometry" />
        </mxCell>
        <mxCell id="u2GpQ1QXN_rMa1UM0fiw-43" value="Manage Vendor" style="ellipse;whiteSpace=wrap;html=1;" vertex="1" parent="u2GpQ1QXN_rMa1UM0fiw-143">
          <mxGeometry x="370" y="397.5" width="190" height="50" as="geometry" />
        </mxCell>
        <mxCell id="u2GpQ1QXN_rMa1UM0fiw-44" value="Select Shop" style="ellipse;whiteSpace=wrap;html=1;" vertex="1" parent="u2GpQ1QXN_rMa1UM0fiw-143">
          <mxGeometry x="370" y="140" width="190" height="50" as="geometry" />
        </mxCell>
        <mxCell id="u2GpQ1QXN_rMa1UM0fiw-45" value="Register/Login" style="ellipse;whiteSpace=wrap;html=1;" vertex="1" parent="u2GpQ1QXN_rMa1UM0fiw-143">
          <mxGeometry x="370" y="80" width="190" height="50" as="geometry" />
        </mxCell>
        <mxCell id="u2GpQ1QXN_rMa1UM0fiw-59" style="edgeStyle=orthogonalEdgeStyle;rounded=0;orthogonalLoop=1;jettySize=auto;html=1;exitX=1;exitY=0.5;exitDx=0;exitDy=0;entryX=1;entryY=0.5;entryDx=0;entryDy=0;" edge="1" parent="u2GpQ1QXN_rMa1UM0fiw-143" source="u2GpQ1QXN_rMa1UM0fiw-46" target="u2GpQ1QXN_rMa1UM0fiw-39">
          <mxGeometry relative="1" as="geometry" />
        </mxCell>
        <mxCell id="u2GpQ1QXN_rMa1UM0fiw-46" value="Add to Cart" style="ellipse;whiteSpace=wrap;html=1;" vertex="1" parent="u2GpQ1QXN_rMa1UM0fiw-143">
          <mxGeometry x="370" y="280" width="190" height="50" as="geometry" />
        </mxCell>
        <mxCell id="u2GpQ1QXN_rMa1UM0fiw-66" style="edgeStyle=orthogonalEdgeStyle;rounded=0;orthogonalLoop=1;jettySize=auto;html=1;exitX=0;exitY=0.5;exitDx=0;exitDy=0;entryX=0;entryY=0.5;entryDx=0;entryDy=0;" edge="1" parent="u2GpQ1QXN_rMa1UM0fiw-143" source="u2GpQ1QXN_rMa1UM0fiw-47" target="u2GpQ1QXN_rMa1UM0fiw-40">
          <mxGeometry relative="1" as="geometry">
            <Array as="points">
              <mxPoint x="300" y="725" />
              <mxPoint x="300" y="545" />
            </Array>
          </mxGeometry>
        </mxCell>
        <mxCell id="u2GpQ1QXN_rMa1UM0fiw-67" value="Includes" style="edgeLabel;html=1;align=center;verticalAlign=middle;resizable=0;points=[];horizontal=0;" vertex="1" connectable="0" parent="u2GpQ1QXN_rMa1UM0fiw-66">
          <mxGeometry x="0.142" y="2" relative="1" as="geometry">
            <mxPoint x="-8" y="17" as="offset" />
          </mxGeometry>
        </mxCell>
        <mxCell id="u2GpQ1QXN_rMa1UM0fiw-47" value="Manage Users" style="ellipse;whiteSpace=wrap;html=1;" vertex="1" parent="u2GpQ1QXN_rMa1UM0fiw-143">
          <mxGeometry x="370" y="700" width="190" height="50" as="geometry" />
        </mxCell>
        <mxCell id="u2GpQ1QXN_rMa1UM0fiw-48" value="Monitor System Activity" style="ellipse;whiteSpace=wrap;html=1;" vertex="1" parent="u2GpQ1QXN_rMa1UM0fiw-143">
          <mxGeometry x="370" y="640" width="190" height="50" as="geometry" />
        </mxCell>
        <mxCell id="u2GpQ1QXN_rMa1UM0fiw-49" style="edgeStyle=orthogonalEdgeStyle;rounded=0;orthogonalLoop=1;jettySize=auto;html=1;exitX=0.5;exitY=1;exitDx=0;exitDy=0;" edge="1" parent="u2GpQ1QXN_rMa1UM0fiw-143" source="u2GpQ1QXN_rMa1UM0fiw-37" target="u2GpQ1QXN_rMa1UM0fiw-37">
          <mxGeometry relative="1" as="geometry" />
        </mxCell>
        <mxCell id="u2GpQ1QXN_rMa1UM0fiw-50" style="edgeStyle=orthogonalEdgeStyle;rounded=0;orthogonalLoop=1;jettySize=auto;html=1;exitX=0.5;exitY=1;exitDx=0;exitDy=0;" edge="1" parent="u2GpQ1QXN_rMa1UM0fiw-143" source="u2GpQ1QXN_rMa1UM0fiw-48" target="u2GpQ1QXN_rMa1UM0fiw-48">
          <mxGeometry relative="1" as="geometry" />
        </mxCell>
        <mxCell id="u2GpQ1QXN_rMa1UM0fiw-51" style="edgeStyle=orthogonalEdgeStyle;rounded=0;orthogonalLoop=1;jettySize=auto;html=1;exitX=0.5;exitY=1;exitDx=0;exitDy=0;" edge="1" parent="u2GpQ1QXN_rMa1UM0fiw-143" source="u2GpQ1QXN_rMa1UM0fiw-46" target="u2GpQ1QXN_rMa1UM0fiw-46">
          <mxGeometry relative="1" as="geometry" />
        </mxCell>
        <mxCell id="u2GpQ1QXN_rMa1UM0fiw-70" style="edgeStyle=orthogonalEdgeStyle;rounded=0;orthogonalLoop=1;jettySize=auto;html=1;exitX=0.5;exitY=1;exitDx=0;exitDy=0;" edge="1" parent="u2GpQ1QXN_rMa1UM0fiw-143" source="u2GpQ1QXN_rMa1UM0fiw-42" target="u2GpQ1QXN_rMa1UM0fiw-42">
          <mxGeometry relative="1" as="geometry" />
        </mxCell>
        <mxCell id="u2GpQ1QXN_rMa1UM0fiw-75" style="edgeStyle=orthogonalEdgeStyle;rounded=0;orthogonalLoop=1;jettySize=auto;html=1;exitX=0.5;exitY=1;exitDx=0;exitDy=0;" edge="1" parent="u2GpQ1QXN_rMa1UM0fiw-143" source="u2GpQ1QXN_rMa1UM0fiw-16" target="u2GpQ1QXN_rMa1UM0fiw-16">
          <mxGeometry relative="1" as="geometry" />
        </mxCell>
        <mxCell id="u2GpQ1QXN_rMa1UM0fiw-81" value="&lt;font style=&quot;font-size: 22px;&quot;&gt;&lt;font style=&quot;&quot;&gt;Figure&lt;/font&gt; 3.1&lt;/font&gt;" style="text;html=1;align=center;verticalAlign=middle;whiteSpace=wrap;rounded=0;" vertex="1" parent="u2GpQ1QXN_rMa1UM0fiw-143">
          <mxGeometry x="410" y="790" width="130" height="30" as="geometry" />
        </mxCell>
      </root>
    </mxGraphModel>
  </diagram>
</mxfile>
